# xmcd
#
# Track frame offsets: 
#        150
#        23730
#        52747
#        70152
#        92745
#        113540
#        131325
#        143682
#        160957
#        185315
#        208917
#        226425
#        248222
#        269470
#        283865
#
# Disc length: 4158 seconds
#
# Revision: 5
# Processed by: cddbd v1.5.1PL0 Copyright (c) Steve Scherf et al.
# Submitted via: ExactAudioCopy v0.95a5
#
DISCID=d0103c0f
DTITLE=Various Artist - Evidence Blues Sampler
DYEAR=1992
DGENRE=Blues
TTITLE0=Eddy Clearwater - Blues Hang Out
TTITLE1=Luther "Georgia Boy" Johnson - Lonesome In My Bedroom
TTITLE2=Magic Slim - Help Me
TTITLE3=Koko Taylor - Big Boss Man
TTITLE4=Big Joe Turner - Cherry Red
TTITLE5=Louis Jordan - Saturday Night Fish Fry
TTITLE6=John Lee Hooker - Boogie Chillen
TTITLE7=Buddy Guy and Junior Wells - Come On In This House
TTITLE8=Otis Rush - Looking Back
TTITLE9=Luther Allison - Key To the Highway
TTITLE10=Screamin' Jay Hawkins - I Put a Spell On You
TTITLE11=J. B. Hutto - I Feel So Good
TTITLE12=Luther "Guitar Junior" Johnson - Sweet Home Chicago
TTITLE13=Lonnie Brooks - Reconsider Baby
TTITLE14=Pinetop Perkins - Pinetop Is Just Top
EXTD=LABEL =Evidence Music Inc.\nID =ECD-26000-2\nUPC =73018-26000-
EXTD=25\nCOPYRIGHT =1992
EXTT0=
EXTT1=The artist is listed on the package several ways ...\n- Luther J
EXTT1=ohnson\n- Luther "Georgia Boy" Johnson\n- Luther "Snake" Johnson
EXTT1=\nSince he is best known - to me at least - as "Georgia Boy", i 
EXTT1=used that.
EXTT2=
EXTT3=
EXTT4=
EXTT5=
EXTT6=
EXTT7=
EXTT8=
EXTT9=
EXTT10=
EXTT11=
EXTT12=The artist is listed on the package several ways ...\n- Luther 
EXTT12=Johnson Jr.\n- Luther Johnson, Jr.\n- Luther "Guitar Junior" Jo
EXTT12=hnson\nSince he is best known - to me at least - as "Guitar Jun
EXTT12=ior", i used that.
EXTT13=
EXTT14=
PLAYORDER=
